<?xml version="1.0" encoding="utf-8"?>
<!-- Generator: Adobe Illustrator 16.0.0, SVG Export Plug-In . SVG Version: 6.00 Build 0)  -->
<!DOCTYPE svg PUBLIC "-//W3C//DTD SVG 1.1//EN" "http://www.w3.org/Graphics/SVG/1.1/DTD/svg11.dtd">
<svg version="1.1" id="图层_1" xmlns="http://www.w3.org/2000/svg" xmlns:xlink="http://www.w3.org/1999/xlink" x="0px" y="0px"
	 width="33px" height="24px" viewBox="0 0 33 24" enable-background="new 0 0 33 24" xml:space="preserve">
<g>
	<path fill="#F39800" d="M29.25,21.668c0-0.343-0.135-0.639-0.316-0.896l0.018-0.026L17.875,1.562h-0.031
		c-0.271-0.478-0.766-0.813-1.353-0.813c-0.601,0-1.102,0.344-1.372,0.836h-0.028L4.008,20.783l0.022,0.041
		c-0.163,0.246-0.28,0.524-0.28,0.844c0,0.873,0.709,1.582,1.583,1.582c0.009,0,0.018,0,0.026,0h0.001h22.333l0.003-0.006
		C28.556,23.227,29.25,22.529,29.25,21.668z"/>
</g>
<g>
	<path fill="#FFFFFF" d="M18.152,14.736l0.448-7.01l0,0c0-0.881-1.166-1.598-2.046-1.598c-0.883,0-2.047,0.717-2.047,1.598h-0.045
		l0.499,7.01l0,0c0,0.879,0.71,1.6,1.593,1.6C17.435,16.336,18.152,15.615,18.152,14.736L18.152,14.736z"/>
</g>
<path fill="#FFFFFF" d="M16.617,17.402c-1.115,0-2.019,0.902-2.019,2.016c0,1.119,0.903,2.016,2.019,2.016
	c1.113,0,2.016-0.896,2.016-2.016C18.633,18.305,17.73,17.402,16.617,17.402"/>
<rect opacity="0" fill="none" stroke="#FFFFFF" stroke-width="0.1" stroke-miterlimit="10" width="33" height="24"/>
</svg>
