<?xml version="1.0" encoding="utf-8"?>
<!-- Generator: Adobe Illustrator 16.0.0, SVG Export Plug-In . SVG Version: 6.00 Build 0)  -->
<!DOCTYPE svg PUBLIC "-//W3C//DTD SVG 1.1//EN" "http://www.w3.org/Graphics/SVG/1.1/DTD/svg11.dtd">
<svg version="1.1" id="图层_1" xmlns="http://www.w3.org/2000/svg" xmlns:xlink="http://www.w3.org/1999/xlink" x="0px" y="0px"
	 width="33px" height="24px" viewBox="0 0 33 24" enable-background="new 0 0 33 24" xml:space="preserve">
<rect fill="none" stroke="#FFFFFF" stroke-width="0.1" stroke-miterlimit="10" width="33" height="24"/>
<g>
	<path fill="#1183C7" d="M16.502,0.75C10.286,0.75,5.25,5.786,5.25,12c0,6.215,5.036,11.25,11.252,11.25
		c6.213,0,11.248-5.035,11.248-11.25C27.75,5.786,22.715,0.75,16.502,0.75z M18.996,15.527c-0.262,1.09-3.027,3.605-4.287,3.188
		c-1.259-0.418-1.008-2.855-1.008-2.855l1.179-5.119l-0.757-0.084c-1.68-1.173,0.418-1.762,0.418-1.762l1.768,0.167
		c2.262,0.169,1.171,1.679,1.171,1.679l-1.761,5.877c0,0,1.846-1.344,2.18-1.68C18.234,14.604,19.246,14.436,18.996,15.527z
		 M17.617,6.854c-0.862,0-1.565-0.63-1.565-1.401c0-0.772,0.703-1.4,1.565-1.4c0.871,0,1.57,0.628,1.57,1.4
		C19.188,6.224,18.488,6.854,17.617,6.854z"/>
</g>
</svg>
