<?xml version="1.0" encoding="UTF-8"?>
<!DOCTYPE svg PUBLIC "-//W3C//DTD SVG 1.1//EN" "http://www.w3.org/Graphics/SVG/1.1/DTD/svg11.dtd">
<!-- Creator: CorelDRAW X7 -->
<svg xmlns="http://www.w3.org/2000/svg" xml:space="preserve" width="0.5in" height="0.5in" version="1.1" style="shape-rendering:geometricPrecision; text-rendering:geometricPrecision; image-rendering:optimizeQuality; fill-rule:evenodd; clip-rule:evenodd"
viewBox="0 0 500 500"
 xmlns:xlink="http://www.w3.org/1999/xlink">
 <defs>
  <style type="text/css">
   <![CDATA[
    .fil0 {fill:#7F8181}
   ]]>
  </style>
 </defs>
 <g id="Layer_x0020_1">
  <metadata id="CorelCorpID_0Corel-Layer"/>
  <path class="fil0" d="M250 63l-219 0 0 406 282 0 0 -219 31 0 0 219 0 31 -31 0 -282 0 -31 0 0 -31 0 -406 0 -32 31 0 219 0 0 32zm-187 62l187 0 0 31 -187 0 0 -31zm0 125l218 0 0 31 -218 0 0 -31zm0 125l218 0 0 31 -218 0 0 -31z"/>
  <path class="fil0" d="M281 156l63 63 -63 0 0 -63zm157 -156l31 31 31 32 -135 135 -63 -63 136 -135z"/>
 </g>
</svg>
