<?xml version="1.0" encoding="UTF-8"?>
<!DOCTYPE svg PUBLIC "-//W3C//DTD SVG 1.1//EN" "http://www.w3.org/Graphics/SVG/1.1/DTD/svg11.dtd">
<!-- Creator: CorelDRAW X7 -->
<svg xmlns="http://www.w3.org/2000/svg" xml:space="preserve" width="0.5in" height="0.5in" version="1.1" style="shape-rendering:geometricPrecision; text-rendering:geometricPrecision; image-rendering:optimizeQuality; fill-rule:evenodd; clip-rule:evenodd"
viewBox="0 0 500 500"
 xmlns:xlink="http://www.w3.org/1999/xlink">
 <defs>
  <style type="text/css">
   <![CDATA[
    .fil0 {fill:#7F8181}
   ]]>
  </style>
 </defs>
 <g id="Layer_x0020_1">
  <metadata id="CorelCorpID_0Corel-Layer"/>
  <path class="fil0" d="M63 375l187 0 0 31 -187 0 0 -31zm226 -125l-39 94 -187 0 -49 -116c-9,-20 -14,-43 -14,-67 0,-89 70,-161 156,-161 35,0 68,12 94,32l0 43c-2,-2 -4,-4 -6,-6 -22,-23 -53,-38 -88,-38 -34,0 -65,15 -88,38 -23,23 -37,56 -37,92 0,10 1,19 3,28 2,9 5,18 9,26l0 1 40 97 146 0 26 -63 34 0zm-226 188l187 0 -31 62 -125 0 -31 -62z"/>
  <path class="fil0" d="M406 0l32 31 -157 94 125 -125zm94 94l0 125 -219 -63 219 -62zm-62 250l31 -32 -188 -124 157 156z"/>
 </g>
</svg>
