<svg xmlns="http://www.w3.org/2000/svg" width="196.103" height="50.043" viewBox="1.949 0 196.103 50.043"><path fill="#4D90FE" d="M64.604 1.522c-3.193 1.541-5.588 4.138-7.338 7.082C54.454 3.877 49.983.042 43.213.042c-6.774 0-15.078 5.749-15.078 15.459 0 9.832 8.204 14.492 12.267 17.123 4.343 2.81 11.754 7.92 16.864 17.375 5.112-9.456 12.522-14.565 16.866-17.375 3.052-1.979 8.446-5.103 10.936-10.709L64.604 1.522zm-.245 20.952V3.999l18.476 18.475H64.359z"/><path fill="#FFF" d="M64.359 22.474V3.999l18.476 18.475z"/><path d="M1.949 39.307H4.24c.727 0 1.565-1.006 1.565-1.677V13.318c0-.671-.838-1.621-1.565-1.621H1.949V5.828h18.388v5.869H17.99c-.727 0-1.509.95-1.509 1.621V37.63c0 .671.782 1.677 1.509 1.677h2.347v5.645H1.949v-5.645zm85.87.094h2.314c.734 0 1.58-1.016 1.58-1.693V13.155c0-.677-.847-1.637-1.58-1.637h-2.314V5.592h18.569v5.926h-2.371c-.734 0-1.524.96-1.524 1.637v24.552c0 .677.79 1.693 1.524 1.693h2.371v5.701H87.819v-5.7zm22.464 0h1.919c.79 0 1.637-1.016 1.637-1.693V13.155c0-.677-.846-1.637-1.637-1.637h-1.919V5.592h18.739l6.152 22.915h.169l6.209-22.915h18.682v5.926h-1.975c-.734 0-1.58.96-1.58 1.637v24.552c0 .677.846 1.693 1.58 1.693h1.975v5.701h-17.722V39.4h3.555V13.607h-.169l-8.749 31.495h-6.773l-8.636-31.495h-.169v25.794h3.725v5.701h-15.013v-5.701zm50.742-13.829c0-13.151 7.451-20.488 19.642-20.488 2.879 0 5.193.282 6.435.508h7.563v12.982h-6.998l-1.073-5.757c-1.073-.395-2.765-.734-4.797-.734-5.475 0-9.37 3.669-9.37 13.038 0 8.974 2.653 13.772 8.353 13.772 1.976 0 3.048-.169 4.177-.508v-6.942h-3.387v-5.757h16.481v5.813h-1.129c-.79 0-1.58 1.016-1.58 1.693v11.909h-5.475s-.508-1.185-1.581-1.185c-2.032 1.016-4.741 1.693-8.184 1.693-12.36 0-19.077-7.055-19.077-20.037z"/></svg>