<?xml version="1.0" standalone="no"?><!DOCTYPE svg PUBLIC "-//W3C//DTD SVG 1.1//EN" "http://www.w3.org/Graphics/SVG/1.1/DTD/svg11.dtd"><svg t="1648206115431" class="icon" viewBox="0 0 1024 1024" version="1.1" xmlns="http://www.w3.org/2000/svg" p-id="1164" xmlns:xlink="http://www.w3.org/1999/xlink" width="200" height="200"><defs><style type="text/css">@font-face { font-family: feedback-iconfont; src: url("//at.alicdn.com/t/font_1031158_u69w8yhxdu.woff2?t=1630033759944") format("woff2"), url("//at.alicdn.com/t/font_1031158_u69w8yhxdu.woff?t=1630033759944") format("woff"), url("//at.alicdn.com/t/font_1031158_u69w8yhxdu.ttf?t=1630033759944") format("truetype"); }
</style></defs><path d="M810.542274 1023.573511a42.648896 42.648896 0 0 1 0-85.297793h85.297793a42.648896 42.648896 0 0 0 42.648896-42.648896v-85.297792a42.648896 42.648896 0 0 1 85.297793 0v85.297792a127.946689 127.946689 0 0 1-127.946689 127.946689zM213.457726 1023.573511H128.159933a127.946689 127.946689 0 0 1-127.946689-127.946689v-85.297792a42.648896 42.648896 0 0 1 85.297793 0v85.297792a42.648896 42.648896 0 0 0 42.648896 42.648896h85.297793a42.648896 42.648896 0 0 1 0 85.297793z m767.680133-469.137859H42.862141a42.648896 42.648896 0 0 1 0-85.297793h938.275718a42.648896 42.648896 0 0 1 0 85.297793z m0-298.542274a42.648896 42.648896 0 0 1-42.648896-42.648897V127.946689a42.648896 42.648896 0 0 0-42.648896-42.648896h-85.297793a42.648896 42.648896 0 0 1 0-85.297793h85.297793a127.946689 127.946689 0 0 1 127.946689 127.946689v85.297792a42.648896 42.648896 0 0 1-42.648897 42.648897zM42.862141 239.686797a42.648896 42.648896 0 0 1-42.648897-42.648896V127.946689a127.946689 127.946689 0 0 1 127.946689-127.946689h85.297793a42.648896 42.648896 0 0 1 0 85.297793H128.159933a42.648896 42.648896 0 0 0-42.648896 42.648896v69.091212a42.648896 42.648896 0 0 1-42.648896 42.648896z" p-id="1165"></path></svg>