<?xml version="1.0" encoding="UTF-8"?>
<svg width="121px" height="32px" viewBox="0 0 121 32" version="1.1" xmlns="http://www.w3.org/2000/svg" xmlns:xlink="http://www.w3.org/1999/xlink">
    <title>彩色标志</title>
    <defs>
        <polygon id="path-1" points="0 32 120.963368 32 120.963368 0 0 0"></polygon>
    </defs>
    <g id="标题栏和目录" stroke="none" stroke-width="1" fill="none" fill-rule="evenodd">
        <g id="平台logo" transform="translate(-25.000000, -90.000000)">
            <g id="编组" transform="translate(25.000000, 90.000000)">
                <path d="M58.8170105,4.40522105 C60.7575579,9.59629474 62.9891368,12.5069474 67.1612632,15.2724211 L65.8997895,16.9219368 C61.6791579,13.9139368 59.1080421,10.7119158 57.0704842,5.03578947 L58.8170105,4.40522105 Z M58.9140211,17.2126316 C60.6120421,19.6385684 63.2801684,23.7136842 64.8811789,26.1392842 L63.1831579,27.2552421 C62.7951158,26.6246737 62.3100632,25.8967579 61.7761684,25.0721684 C59.2535579,25.2176842 50.0843789,25.6542316 48.8717474,25.7027368 C48.0468211,25.7512421 47.2222316,25.8967579 46.3973053,26.0422737 L45.8152421,24.1017263 C46.8338526,23.8592 47.1737263,23.6651789 47.5617684,23.2286316 C49.7448421,20.7545263 52.3159579,16.4850526 54.1109895,12.7009684 L56.0030316,13.4288842 C54.2565053,17.1156211 51.7338947,21.2395789 49.5993263,23.8106947 C50.8604632,23.7621895 57.7010526,23.4226526 60.6120421,23.2771368 C59.3990737,21.4336 58.1376,19.5415579 57.3130105,18.2800842 L58.9140211,17.2126316 Z M51.7824,4.74475789 L53.6259368,5.37532632 C51.7338947,9.98433684 48.7747368,13.8169263 44.7962947,16.9704421 L43.5351579,15.3694316 C47.4162526,12.4099368 50.1328842,8.91688421 51.7824,4.74475789 L51.7824,4.74475789 Z" id="Fill-1" fill="#4C4D4E"></path>
                <path d="M85.1599495,14.6900884 C85.2084547,13.9625095 85.3054653,12.7010358 85.3054653,12.2644884 L87.3430232,12.2644884 L87.1975074,14.7385937 L87.1490021,15.2236463 C87.8280758,19.49312 90.1084968,22.7918147 94.1836126,25.6542989 L92.8251284,27.2553095 C89.76896,24.9752253 87.5373811,22.3552674 86.3729179,19.1532463 C85.3054653,22.2582568 83.3164126,24.7812042 80.0173811,27.5948463 L78.4163705,26.0908463 C83.0253811,22.4037726 84.8204126,19.3476042 85.1599495,14.6900884 M81.4243705,4.50229895 L83.3164126,4.50229895 C85.6450021,8.04385684 89.1383916,10.7604884 94.0380968,13.1375832 L92.9706442,15.0296253 C88.2164547,12.6525305 84.8204126,9.88739368 82.3948126,6.58836211 C80.0658863,9.79038316 76.6701811,12.5070147 71.7216337,15.0296253 L70.6545179,13.1375832 C75.6997389,10.7119832 79.1442863,7.89800421 81.4243705,4.50229895 M76.3306442,14.5445726 L76.47616,12.3129937 L78.4652126,12.3129937 C78.4652126,12.6525305 78.3678653,14.3505516 78.31936,14.6900884 L78.2226863,15.7086989 L82.5403284,20.3662147 L81.0848337,21.7732042 C80.2602442,20.8027621 78.9502653,19.2990989 77.7858021,18.0861305 C76.9612126,21.4336674 75.3116968,24.1017937 72.2551916,27.3038147 L70.5571705,25.9453305 C74.4867705,22.1127411 75.9907705,19.2990989 76.3306442,14.5445726" id="Fill-3" fill="#4C4D4E"></path>
                <mask id="mask-2" fill="white">
                    <use xlink:href="#path-1"></use>
                </mask>
                <g id="Clip-6"></g>
                <path d="M102.964547,10.4208842 L115.335747,10.4208842 L115.335747,7.07334737 L102.964547,7.07334737 L102.964547,10.4208842 Z M100.878484,12.1189053 L117.421811,12.1189053 L117.421811,5.42416842 L100.878484,5.42416842 L100.878484,12.1189053 Z M102.188463,16.1455158 L97.4339368,16.1455158 L97.4339368,14.4474947 L120.963368,14.4474947 L120.963368,16.1455158 L104.371537,16.1455158 L103.837979,18.7651368 L117.082274,18.7651368 C117.033768,19.4930526 116.790905,22.5977263 116.693895,23.2771368 C116.402863,26.2366316 115.481263,26.9157053 111.794189,26.9157053 L106.263579,26.9157053 L105.875537,25.0236632 L111.211789,25.0236632 C113.783242,25.0236632 114.268295,24.7326316 114.510821,22.8405895 C114.559326,22.3070316 114.704842,20.9970526 114.753347,20.4146526 L101.266526,20.4146526 L102.188463,16.1455158 Z" id="Fill-5" fill="#4C4D4E" mask="url(#mask-2)"></path>
                <path d="M27.1592758,6.37925053 C25.4878653,2.94245053 21.2598232,0.000808421053 16.47296,0.000134342517 C13.9611284,-0.000538947368 10.1238232,0.861776842 7.25628632,4.32922947 C5.34133895,6.64468211 4.69662316,9.35457684 5.10016,12.0570611 C5.37738105,13.9137347 6.41148632,16.3632505 7.89123368,17.9127242 C8.44904421,13.9848084 10.5179284,10.8956295 13.2305179,8.62497684 C18.1282021,4.88333474 23.3570021,5.09520842 27.1592758,6.37925053" id="Fill-7" fill="#07C160" mask="url(#mask-2)"></path>
                <path d="M30.9808168,12.272 C27.9842695,8.38315789 22.8043116,7.29515789 18.1282695,9.02922105 C18.2791747,9.07469474 18.4297432,9.11949474 18.5799747,9.17035789 C25.5030905,11.5289263 29.2447326,19.0394947 26.9373642,25.9454316 C26.3233011,27.7825684 25.3403958,29.3893053 24.1021642,30.7174737 C25.5937011,30.3045053 27.1202695,29.7140211 28.4299116,28.7048421 C33.7025011,24.6421895 34.7403116,17.1508211 30.9808168,12.272" id="Fill-8" fill="#07C160" mask="url(#mask-2)"></path>
                <path d="M16.4597558,24.6952084 C15.4077979,24.6952084 14.3888505,24.5742821 13.40864,24.3553347 C13.2890611,24.3307453 13.1657768,24.3162611 13.0377768,24.3219874 C12.7474189,24.3344505 12.48704,24.4348295 12.24384,24.5907874 L9.01082947,26.6633768 C8.92021895,26.7209768 8.83264,26.7661137 8.72282947,26.7708295 C8.44358737,26.7829558 8.20779789,26.5643453 8.19567158,26.2840926 C8.19028211,26.15744 8.23508211,26.0297768 8.26135579,25.9081768 C8.27718737,25.8354189 8.61975579,24.2815663 8.83331368,23.3121347 C8.85824,23.2029979 8.87777684,23.0979032 8.87306105,22.9857347 C8.85857684,22.6485558 8.68139789,22.3571874 8.42236632,22.1827032 C5.01520842,19.8591663 2.67819789,16.2081347 2.16417684,12.4543663 C1.30725053,13.8013979 0.850829474,14.8718821 0.404176842,16.4324716 C-1.26150737,22.2554611 2.38413474,29.2314611 8.33344,31.1854821 C15.1753768,33.4325558 21.7040505,30.9102821 23.9592084,25.0913347 C24.2333979,24.38464 24.5331874,23.1844716 24.5951663,22.1874189 C22.1992084,23.9501137 19.6624505,24.6952084 16.4597558,24.6952084" id="Fill-9" fill="#07C160" mask="url(#mask-2)"></path>
            </g>
        </g>
    </g>
</svg>