<svg width="80" height="36" xmlns="http://www.w3.org/2000/svg" xmlns:xlink="http://www.w3.org/1999/xlink"><defs><path id="a" d="M0 .485h19.462v16.398H0z"/><path id="c" d="M.148.186h15.343V13.39H.148z"/><path id="e" d="M0 31.515h78.713v-31H0z"/></defs><g fill="none" fill-rule="evenodd"><path d="M0 0h80v36H0z"/><g transform="translate(.5 2)"><g transform="translate(0 .031)"><mask id="b" fill="#fff"><use xlink:href="#a"/></mask><path d="M12.852 15.284c-3.66 0-6.625-2.955-6.625-6.599 0-3.647 2.966-6.598 6.625-6.598 1.289 0 2.493.364 3.51.998l-3.51 5.6 6.61-3.802c-.716-1.14-1.748-2.125-2.996-2.87C14.882 1.07 12.678.485 10.24.485c-3.478 0-6.53 1.256-8.23 3.142C.75 5.02 0 6.778 0 8.685s.75 3.664 2.01 5.056c1.704 1.892 4.71 3.142 8.13 3.142 3.42 0 6.424-1.25 8.133-3.142.094-.103.183-.21.272-.315l-.26-.966a6.616 6.616 0 0 1-5.433 2.824" fill="#DE0112" mask="url(#b)"/></g><path d="M26.304 14.914a2.404 2.404 0 0 1-2.408-2.398 2.405 2.405 0 0 1 2.408-2.402 2.408 2.408 0 0 1 2.412 2.402 2.407 2.407 0 0 1-2.412 2.398zm8.464 1.602l-2.774-10.31a3.91 3.91 0 0 0-3.782-2.892c-.47 0-.922.085-1.338.235L20.9 5.715h6.146l1.05 3.903a5.821 5.821 0 0 0-3.8-1.4c-2.883 0-5.219 1.922-5.219 4.298 0 2.374 2.336 4.301 5.219 4.301a6.224 6.224 0 0 0 5.044-2.566l.61 2.265h4.818zM46.084 3.314c-.368 0-.711.085-1.02.226l-3.832 1.782a2.41 2.41 0 0 0-3.397-1.782l-4.682 2.175h3.293v10.802h4.818V6.916a1.205 1.205 0 0 1 2.408 0v9.6h4.82v-10.8c0-1.324-1.08-2.4-2.408-2.4" fill="#DE0112"/><g transform="translate(63.223 3.128)"><mask id="d" fill="#fff"><use xlink:href="#c"/></mask><path d="M13.08.186c-.363 0-.71.085-1.019.226L8.23 2.194A2.412 2.412 0 0 0 4.832.412L.148 2.587h3.293v10.802h4.82V3.788a1.204 1.204 0 0 1 2.407 0v9.6h4.823v-10.8c0-1.324-1.08-2.4-2.411-2.4" fill="#DE0112" mask="url(#d)"/></g><path d="M57.612 5.38a1.502 1.502 0 0 0-1.843-1.058 1.495 1.495 0 0 0-1.065 1.836l2.34 8.694a1.5 1.5 0 0 0 1.843 1.057 1.495 1.495 0 0 0 1.061-1.837L57.612 5.38zm6.542 4.734c0 3.755-3.055 6.8-6.828 6.8-3.769 0-6.827-3.045-6.827-6.8 0-3.753 3.058-6.8 6.827-6.8 3.773 0 6.828 3.047 6.828 6.8z" fill="#DE0112"/><path d="M.591 29.452h.62c.744 0 1.258-.047 1.545-.139a1.77 1.77 0 0 0 .953-.707c.232-.344.347-.76.347-1.252 0-.517-.125-.958-.377-1.324-.25-.366-.6-.618-1.047-.754-.336-.103-.888-.152-1.662-.152H.591v4.328zm-.52.51v-5.365h1.117c.805 0 1.39.065 1.753.193.522.183.931.498 1.225.949.293.449.442.986.442 1.609 0 .536-.117 1.009-.35 1.417-.233.41-.537.71-.908.905-.371.196-.894.292-1.565.292H.072zm8.857-2.392a1.715 1.715 0 0 0-.3-.65 1.425 1.425 0 0 0-.522-.393 1.61 1.61 0 0 0-.68-.15c-.393 0-.73.126-1.011.375-.206.18-.364.455-.467.819h2.98zm.001 1.065l.431.228a2.357 2.357 0 0 1-.493.676c-.185.17-.395.3-.624.389a2.17 2.17 0 0 1-.791.135c-.651 0-1.158-.213-1.525-.635a2.144 2.144 0 0 1-.552-1.441c0-.5.156-.95.466-1.344.395-.502.921-.751 1.583-.751.679 0 1.222.253 1.63.766.288.36.434.81.442 1.35h-3.6c.01.465.157.843.446 1.142.286.294.64.444 1.062.444.203 0 .401-.037.594-.107.192-.072.357-.164.49-.283.136-.117.285-.307.441-.569z" fill="#231916"/><mask id="f" fill="#fff"><use xlink:href="#e"/></mask><path fill="#231916" mask="url(#f)" d="M10.368 29.962h.511v-5.498h-.511zm1.578 0h.748v-3.968h-.748v3.968zm.368-5.6c.17 0 .318.042.439.123.12.084.18.182.18.298 0 .115-.06.212-.18.295a.77.77 0 0 1-.439.123.765.765 0 0 1-.432-.123c-.12-.083-.18-.18-.18-.295 0-.116.06-.214.18-.298a.773.773 0 0 1 .432-.123zm3.05 2.025c-.291 0-.56.069-.81.208-.25.14-.445.333-.587.58a1.59 1.59 0 0 0-.213.801c0 .437.147.794.44 1.08.293.285.673.427 1.14.427.472 0 .852-.141 1.14-.422.285-.284.428-.654.428-1.115a1.57 1.57 0 0 0-.198-.799 1.431 1.431 0 0 0-.558-.557 1.566 1.566 0 0 0-.782-.203zm1.52-.393h.509v3.162c0 .554-.05.962-.146 1.22a1.58 1.58 0 0 1-.7.843c-.334.197-.732.296-1.2.296-.34 0-.647-.05-.92-.146a1.826 1.826 0 0 1-.665-.388c-.17-.164-.326-.402-.472-.712h.56c.15.261.346.456.586.584.24.127.537.191.891.191.35 0 .645-.065.885-.194.24-.13.413-.294.514-.488.103-.197.157-.514.157-.95v-.204a2.03 2.03 0 0 1-1.6.754c-.368 0-.711-.091-1.034-.272a1.953 1.953 0 0 1-1.016-1.742c0-.368.093-.708.278-1.026.183-.318.436-.569.76-.754a2.064 2.064 0 0 1 1.027-.276c.3 0 .577.06.835.184.257.122.508.326.75.605v-.687zm1.608-1.53h.51v2.24a2.2 2.2 0 0 1 .689-.611c.246-.134.516-.201.806-.201.298 0 .562.077.793.227.23.15.4.352.511.606.11.255.164.652.164 1.192v2.045h-.512v-1.893c0-.457-.017-.763-.055-.915-.066-.262-.178-.46-.346-.593-.169-.133-.386-.199-.655-.199-.312 0-.588.1-.835.305a1.45 1.45 0 0 0-.484.761c-.048.194-.075.552-.075 1.08v1.454h-.511v-5.498zm5.015.056h.512v1.474h.811v.438h-.811v3.53h-.512v-3.53h-.702v-.438h.702zm2.095 5.442h.749v-3.968h-.749v3.968zm.372-5.6a.76.76 0 0 1 .437.123c.123.084.182.182.182.298 0 .115-.06.212-.182.295a.757.757 0 0 1-.437.123.741.741 0 0 1-.43-.123c-.121-.083-.181-.18-.181-.295 0-.116.06-.214.18-.298a.749.749 0 0 1 .43-.123zm1.135 1.632h.51v.71c.206-.271.432-.475.68-.612.25-.133.52-.2.813-.2.297 0 .562.077.794.227.228.15.398.352.509.607.11.254.165.655.165 1.192v2.044h-.51v-1.893c0-.457-.022-.763-.061-.915-.06-.263-.176-.46-.343-.593-.168-.133-.387-.2-.657-.2-.31 0-.587.102-.832.306a1.438 1.438 0 0 0-.484.761c-.05.196-.074.555-.074 1.08v1.454h-.51v-3.968zm6.487.393c-.29 0-.56.069-.81.208a1.52 1.52 0 0 0-.585.58 1.58 1.58 0 0 0-.214.801c0 .437.148.794.44 1.08.292.285.673.427 1.14.427.472 0 .851-.141 1.139-.422.288-.284.43-.654.43-1.115 0-.298-.068-.563-.197-.799a1.44 1.44 0 0 0-.561-.557 1.563 1.563 0 0 0-.782-.203zm1.517-.393h.513v3.162c0 .554-.05.962-.15 1.22a1.573 1.573 0 0 1-.697.843c-.331.197-.731.296-1.197.296-.343 0-.65-.05-.922-.146a1.818 1.818 0 0 1-.665-.388c-.173-.164-.329-.402-.473-.712h.559c.15.261.347.456.587.584.239.127.537.191.89.191.35 0 .644-.065.886-.194.242-.13.412-.294.515-.488.102-.197.154-.514.154-.95v-.204c-.194.24-.43.43-.708.56-.28.129-.575.194-.888.194a2.1 2.1 0 0 1-1.037-.272 1.94 1.94 0 0 1-.748-.731 1.986 1.986 0 0 1-.265-1.011 2 2 0 0 1 .276-1.026c.18-.318.437-.569.762-.754a2.057 2.057 0 0 1 1.024-.276c.3 0 .58.06.837.184.257.122.507.326.747.605v-.687zm3.34-1.397h.62l1.388 2.234 1.36-2.234h.616l-1.708 2.801v2.564h-.533v-2.564zm5.997 1.795c-.426 0-.791.16-1.098.472-.304.312-.46.69-.46 1.134 0 .29.072.557.211.803.14.249.327.438.564.574.237.134.5.203.782.203.284 0 .546-.069.78-.203a1.47 1.47 0 0 0 .567-.574c.141-.246.21-.514.21-.803 0-.444-.154-.822-.463-1.134a1.483 1.483 0 0 0-1.094-.472m0-.5c.615 0 1.123.222 1.525.663.365.404.55.88.55 1.432a2.06 2.06 0 0 1-.58 1.455c-.386.415-.886.621-1.495.621-.607 0-1.108-.206-1.495-.62a2.059 2.059 0 0 1-.58-1.456c0-.548.184-1.024.55-1.428a1.976 1.976 0 0 1 1.525-.668m2.961.103h.513v1.852c0 .454.022.765.072.934.075.244.212.437.422.577.207.143.454.212.74.212s.53-.069.73-.204c.2-.141.339-.318.415-.543.052-.152.076-.478.076-.976v-1.852h.519v1.947c0 .548-.063.96-.19 1.236-.13.278-.321.495-.58.652-.258.155-.581.235-.97.235-.388 0-.713-.08-.972-.235a1.447 1.447 0 0 1-.582-.657c-.129-.28-.194-.704-.194-1.268v-1.91zm8.918-.266l-.926 1.952h1.85l-.924-1.952zm.07-1.131l2.513 5.365h-.584l-.837-1.757h-2.335l-.833 1.757h-.6l2.541-5.365h.136zm3.186 5.365h.51v-5.498h-.51zm1.034-3.968h.531l1.214 2.878 1.274-2.878h.091l1.28 2.878 1.24-2.878h.527l-1.722 3.968h-.098l-1.27-2.84-1.271 2.84h-.103zm8.687.393a1.536 1.536 0 0 0-1.36.796 1.61 1.61 0 0 0 .001 1.602c.142.255.336.453.577.596.242.14.501.213.778.213.278 0 .543-.073.792-.212a1.48 1.48 0 0 0 .578-.573c.134-.24.201-.509.201-.811 0-.458-.15-.843-.452-1.149a1.491 1.491 0 0 0-1.115-.462zm2.047-.393v3.968h-.51v-.682a2.21 2.21 0 0 1-.72.587 1.951 1.951 0 0 1-.873.196 1.94 1.94 0 0 1-1.44-.61 2.038 2.038 0 0 1-.596-1.486c0-.571.2-1.06.602-1.467a1.963 1.963 0 0 1 1.448-.608c.326 0 .62.07.884.206.265.14.495.346.695.626v-.73h.51zm.731 0h.534l1.373 3.043 1.334-3.043h.546l-2.379 5.419h-.544l.778-1.776zm6.46.429l-.329.339c-.274-.268-.543-.4-.806-.4a.626.626 0 0 0-.429.165.513.513 0 0 0-.176.384c0 .128.05.252.148.37.096.117.3.258.614.418.383.197.642.387.776.571.135.185.202.392.202.624 0 .325-.115.602-.346.83-.228.228-.516.34-.86.34-.231 0-.452-.051-.66-.149a1.448 1.448 0 0 1-.52-.41l.322-.367c.262.293.539.44.834.44.204 0 .38-.068.523-.198a.604.604 0 0 0 .075-.857c-.095-.11-.31-.252-.644-.422-.36-.185-.604-.367-.734-.547a1.01 1.01 0 0 1-.195-.616c0-.299.103-.55.31-.748.207-.2.47-.298.784-.298.368 0 .737.176 1.11.531"/></g></g></svg>