<svg width="96" height="24" xmlns="http://www.w3.org/2000/svg" xmlns:xlink="http://www.w3.org/1999/xlink"><defs><path id="a" d="M0 .053h9.4v10.198H0z"/></defs><g fill="none" fill-rule="evenodd"><path d="M0 0h96v24H0z"/><g transform="translate(1 10.847)"><mask id="b" fill="#fff"><use xlink:href="#a"/></mask><path d="M7.132 7.908c0-.064.144-.09.446-.082.29.009.567.032.814.071.253.039.427.187.527.444.103.259.15.409.15.456a.588.588 0 0 1-.1.233c-.056.077-.118.118-.176.118-.186.013-.518-.168-.98-.548-.472-.385-.697-.616-.681-.692zm-.237-6.596l-.33-.26C6.366.898 6.278.79 6.29.73c0-.049.076-.08.233-.096l.486-.09c.224.029.423.13.611.303.194.17.277.334.26.489a.533.533 0 0 1-.232.318c-.129.084-.377-.03-.752-.341zM3.74 7.227c0-.09.067-.13.21-.115.154.047.357.079.611.095.248.014.424.093.522.235.103.138.163.238.172.302 0 0 .016.031.016.088 0 .055-.016.123-.016.123-.009.048-.051.102-.114.16-.062.068-.125.09-.188.074-.245-.031-.52-.184-.807-.456-.285-.274-.423-.442-.406-.506zm-.18-1.283c.243-.062.385-.118.426-.166a.57.57 0 0 0 .093-.196c.021-.087.039-.164.06-.235.011-.07.026-.117.033-.14l.023-.103c.007-.05-.067-.082-.222-.096-.048 0-.18.03-.4.096-.22.06-.426.098-.626.112 0 .111.005.181.023.211l.068.304.048.349c.077-.027.234-.077.474-.136zm-.124-2.482c.165-.046.346-.109.523-.185a1.67 1.67 0 0 1 .457-.141c.346 0 .521.055.529.163a.597.597 0 0 1-.011.211c-.05.082-.242.172-.588.269a7.07 7.07 0 0 1-.642.174 2.723 2.723 0 0 1-.48.028c-.077.012-.138.007-.186-.028l-.161-.068a.365.365 0 0 1-.155-.069c-.04-.034-.011-.08.08-.143l.236-.066.398-.145zm-.82 5.405l-.235-.305c-.077-.076-.11-.134-.103-.163.005-.03.038-.071.092-.117.057-.044.137-.032.245.046l.285.258c.076.079.332.245.77.492.434.248 1.064.375 1.872.375a1.9 1.9 0 0 0 .558-.037c.177-.039.269-.094.295-.166.021-.067.037-.143.045-.22.005-.077-.024-.211-.081-.4l-.094-.276s-.019-.107-.01-.13c.005-.026.034-.03.092-.026a.22.22 0 0 1 .125.06l.164.283c.062.108.2.256.41.441.209.187.373.32.484.4.105.078.172.142.186.188.017.044.026.09.037.125.006.041-.016.085-.06.131-.126.156-.457.269-.999.337-.533.071-.895.098-1.085.084a7.87 7.87 0 0 1-1.004-.109c-.33-.051-.692-.208-1.092-.465-.391-.257-.693-.525-.898-.806zm.47-2.457c0 .079.006.135.012.177.01.04-.012.113-.06.22-.044.11-.123.095-.236-.046a.302.302 0 0 1-.117-.186l-.07-.234-.092-.261a2.19 2.19 0 0 1-.093-.349l-.073-.28c-.016-.032-.046-.1-.1-.21a.957.957 0 0 1-.1-.293c-.003-.086.055-.128.18-.128 0 .016.033.034.105.06.07.023.173.026.314.012.205 0 .474-.047.804-.143.336-.095.556-.181.658-.27.101-.082.17-.127.222-.127.56.249.842.428.842.54a1.096 1.096 0 0 1-.162.234 1.137 1.137 0 0 0-.167.232l-.088.185-.06.12c-.01.015.007.056.045.115a.463.463 0 0 1 .07.211c.008.077-.082.134-.27.163l-.4.094c-.494.127-.887.183-1.164.164zM.745 8.515c.032-.093.054-.174.07-.245.012-.072.035-.182.059-.325.026-.151.088-.201.199-.155.027.033.069.082.126.155.058.072.1.147.131.244.029.093.052.214.059.36.006.149.005.282-.013.385-.046.392-.138.672-.283.846-.14.17-.247.249-.327.232a.229.229 0 0 1-.188-.093 1.023 1.023 0 0 1-.123-.258 1.111 1.111 0 0 1-.077-.278.495.495 0 0 1 .09-.283l.137-.256.14-.33zm4.09-6.57C4.662 1.328 4.539.897 4.493.819 4.451.742 4.416.662 4.37.584L4.227.42c-.062-.063-.09-.128-.084-.198.007-.068.084-.169.226-.169.347.016.602.084.784.201.174.115.317.268.329.33 0 .033-.014.09-.056.176-.04.084-.09.184-.076.292 0 .048.05.374.12.748.484-.136.843-.207 1.077-.207a.818.818 0 0 1 .396.14c.107.076.165.147.165.212-.015.077-.077.151-.19.221-.104.07-.553.17-1.328.292.123.704.38 1.468.769 2.291.05-.095.104-.213.188-.364.073-.144.147-.306.222-.476a2.38 2.38 0 0 0 .126-.376l-.048-.465c.035-.05.087-.071.16-.071.1.014.265.103.51.267.242.164.363.285.363.365a.927.927 0 0 1-.055.14c-.028.03-.09.092-.19.184a1.575 1.575 0 0 0-.272.33l-.185.327c-.11.17-.26.398-.449.68.141.232.406.514.787.852.385.334.667.497.858.481.12 0 .276-.163.465-.493l.28-.49a.658.658 0 0 1 .136-.189c.033-.012.067 0 .095.05l-.044.301-.051.468a.75.75 0 0 0 0 .235v.211c0 .123.025.265.072.42.05.155.072.256.072.306-.032.2-.161.285-.397.255-.843-.06-1.75-.676-2.713-1.847-.33.327-.65.584-.958.773l-.234.138c-.018.017-.055.017-.118 0-.062-.016-.097-.04-.106-.082-.007-.038.012-.083.06-.128l.187-.189c.231-.232.52-.57.865-1.004-.313-.593-.515-1.046-.606-1.356-.097-.313-.263-.797-.4-1.449-.41.093-.705.158-.982.198-.284.04-.565.084-.85.14a1.435 1.435 0 0 1-.766-.036.954.954 0 0 0-.044.235l-.026.372c-.016.034-.03.132-.046.293-.013.164-.035.371-.056.622a5.251 5.251 0 0 1-.063.477 4.99 4.99 0 0 1-.137.513 7.8 7.8 0 0 1-.178.553c-.04.093-.132.242-.283.442a3.168 3.168 0 0 1-.511.566c-.199.17-.318.27-.362.3l-.355.214a.603.603 0 0 1-.227.103C.027 7.553 0 7.54 0 7.51c0-.032.008-.062.02-.095l.256-.233.214-.255a5.59 5.59 0 0 0 .675-1.055 3.65 3.65 0 0 0 .338-1.088c.058-.365.095-.634.108-.804v-.868c-.013-.235-.068-.414-.152-.537-.086-.127-.122-.21-.106-.259 0-.093.062-.147.185-.163.03 0 .17.052.411.15.244.102.428.145.55.13.296 0 1.042-.163 2.336-.49z" fill="#231916" mask="url(#b)"/></g><path d="M18.648 14.119c.03-.36.06-.628.092-.815l.073-.886c.012-.217.018-.557.018-.65a1.312 1.312 0 0 0-.102-.435c-.057-.13-.086-.22-.074-.268 0-.089.097-.19.237-.165.34.063.679.273.77.414.088.145.11.228.107.243-.018.1-.047.157-.097.277l-.046.142c-.03.108-.075.507-.128.826-.06.319-.121.711-.198 1.176.232-.061.412-.12.537-.163l.463-.187c.138-.047.26-.092.354-.137.089-.048.163-.08.203-.095.084 0 .276.117.585.351.31.231.473.38.5.44.023.062.045.148.057.256-.012.03-.066.094-.152.19-.085.092-.15.207-.2.344-.04.14-.07.313-.089.516l-.136.93-.167 1.187a18.58 18.58 0 0 1-.36 1.56c-.161.604-.345 1.02-.548 1.249-.2.224-.385.385-.545.485-.164.1-.27.127-.319.116-.03-.006-.056-.03-.08-.069a4.584 4.584 0 0 1-.163-.43 3.599 3.599 0 0 0-.261-.605l-.402-.562c-.017 0-.024-.032-.033-.101-.01-.07.033-.09.126-.059l.396.187.304.16c.119.063.215.086.282.07.106 0 .247-.156.427-.476.178-.316.321-.746.423-1.279.097-.537.186-1.056.257-1.561.066-.503.107-.878.123-1.119.016-.24.016-.46 0-.662-.028-.265-.172-.391-.415-.351-.11.017-.747.164-.747.164l-.515.14c-.2.901-.353 1.552-.448 1.955-.105.405-.295.913-.573 1.528a5.031 5.031 0 0 1-1.074 1.547c-.432.42-.813.691-1.143.815l-.274.116c-.093.046-.158.067-.186.057a.077.077 0 0 1-.062-.057c-.007-.03.03-.085.108-.165l.28-.23c.79-.64 1.33-1.261 1.62-1.875.287-.613.464-1.049.544-1.304.078-.259.17-.583.278-.979.11-.396.172-.631.187-.708l.093-.514a2.63 2.63 0 0 0-.371.058c-.094.023-.156.027-.187.014-.324-.065-.497-.143-.515-.234-.012-.095-.012-.149 0-.164 0-.014.025-.031.074-.045l.393-.05c.294-.03.53-.07.699-.113m-4.985-.746l.769-.14a7.24 7.24 0 0 0 .963-.21c.34-.092.593-.136.76-.136.292.016.484.075.561.183.077.107.113.17.113.184-.012.111-.133.19-.368.237l-.908.137-.816.167a.915.915 0 0 1-.352.02c-.236 0-.421-.045-.57-.14-.15-.094-.224-.148-.23-.162-.008-.015-.005-.04.01-.07 0-.032.025-.053.068-.07m1.354 2.257l.244.351c.01.015.01.031.01.044-.014.034-.177.266-.49.699-.307.436-.574.848-.79 1.235.28-.092.912-.302 1.888-.63a7.6 7.6 0 0 0-.151-.408.773.773 0 0 1-.069-.206.254.254 0 0 1 0-.107c.006-.016.026-.03.058-.045.044 0 .257.129.637.381.381.256.565.635.551 1.133a4.898 4.898 0 0 1-.096.349c-.044.136-.113.198-.213.183-.104 0-.224-.115-.346-.348a4.08 4.08 0 0 1-.283-.65c-1.347.71-2.112 1.157-2.29 1.325-.18.174-.307.241-.383.21-.093 0-.171-.073-.222-.22a2.253 2.253 0 0 1-.103-.364c-.02-.09-.02-.16 0-.206 0-.017.004-.034.007-.056a.29.29 0 0 1 .058-.084l.167-.092.139-.14s.16-.17.255-.304c.094-.133.16-.232.16-.232a6.34 6.34 0 0 0 .249-.453c.13-.259.224-.443.28-.56a4.23 4.23 0 0 0 .2-.688c-.55.138-.913.204-1.097.186-.264 0-.463-.048-.61-.137-.134-.098-.203-.147-.203-.166v-.059c0-.005.016-.042.046-.055l.674-.072c.158-.017.425-.066.825-.152.396-.084.85-.193 1.364-.323.51-.132.88-.207 1.113-.221.282 0 .468.044.566.139.095.09.14.147.148.162.005.014.014.031.014.045a.45.45 0 0 1-.061.174c-.025.04-.101.076-.247.106-.138.033-.806.119-2 .256m14.651-3.224l-.228.113c-.048.032-.083.043-.112.034-.028-.007-.058-.017-.068-.034-.017-.013-.023-.027-.015-.033a.569.569 0 0 0 .105-.125l.133-.18.228-.274c.032-.028.088-.126.179-.295.09-.162.145-.279.158-.336l.027-.137c.012-.075.056-.114.134-.114.03.016.202.08.52.194.316.113.474.26.474.441v.046c-.016.089-.123.176-.317.26a8.36 8.36 0 0 1-.703.258c-.269.093-.44.152-.515.182m-2.402 2.647l.182.658c1.127-.167 1.731-.285 1.797-.351a.562.562 0 0 0 .147-.307c.029-.135.048-.233.048-.293-.019-.091-.075-.138-.18-.138-.167.016-.834.163-1.994.43m.066-2.283c-.012.164-.056.283-.132.349-.076.069-.137.095-.186.082-.054 0-.166-.075-.334-.226a1.27 1.27 0 0 1-.342-.464l-.123-.329a.322.322 0 0 1-.021-.158c.004-.045.046-.067.124-.067.136.015.34.098.609.258.273.159.405.343.405.555m.724 3.215l-.562.088a.554.554 0 0 1-.103.282c-.056.07-.115.063-.191-.01-.046-.031-.186-.256-.407-.678-.233-.425-.352-.65-.373-.68a.237.237 0 0 1-.048-.082c-.004-.02 0-.092.031-.126a.245.245 0 0 1 .095-.064c.016 0 .048.004.1.01.05.01.118.005.195-.01.244-.014.68-.077 1.314-.191.631-.115 1.035-.224 1.21-.332.17-.102.29-.155.35-.155.197.014.405.082.623.2.219.125.348.219.408.287.048.066.074.11.074.122a.251.251 0 0 1-.055.102c-.02.023-.115.08-.273.17a1.282 1.282 0 0 0-.349.282c-.075.099-.116.17-.116.216l-.021.158c-.027.093-.43.198-1.202.32.05.074.082.133.107.179.02.044.032.105.032.183l-.021.428c.405-.06.751-.136 1.024-.228.282-.087.45-.142.49-.159.034 0 .164.036.407.102.242.07.408.152.497.25.094.099.138.164.138.192-.018.015-.031.042-.044.081-.015.04-.038.108-.06.214-.02.105-.034.24-.047.4-.006.156-.003.36.013.607s.031.452.034.612c.009.158-.003.295-.034.416-.032.077-.082.217-.158.42-.062.173-.142.271-.236.299-.02.005-.076.036-.16-.006-.035-.02-.129-.125-.283-.306a3.34 3.34 0 0 0-.588-.54l-.222-.16c-.047-.03-.073-.054-.08-.069-.012-.015.018-.06.026-.067a.396.396 0 0 1 .163-.023h.225l.298.025h.07a.3.3 0 0 0 .136-.025c.029-.015.045-.075.05-.182a3.24 3.24 0 0 0 .015-.314c-.034-.606-.08-.974-.151-1.098a1.548 1.548 0 0 0-.12-.216l-.059-.012c-.035-.014-.078-.01-.078-.01-.014 0-.442.077-1.287.225 0 .395 0 .705.01.943.005.232.01.47.01.71-.014.44-.038.87-.066 1.299a7.76 7.76 0 0 1-.15 1.112c-.068.306-.146.457-.236.44-.169 0-.242-.384-.224-1.151V20.1c0-.153.004-.672.02-1.564V17.7l-.02-.496-1.27.249c-.075.544-.124.971-.147 1.291-.02.313-.073.532-.159.653-.084.124-.143.175-.19.158-.167-.03-.263-.12-.297-.27a1.122 1.122 0 0 1-.02-.338c0-.03.014-.138.046-.32.031-.18.047-.34.055-.484.01-.142.014-.274.02-.395.012-.122.018-.256.018-.409a.922.922 0 0 0-.06-.247c-.022-.047-.025-.078-.01-.091l.042-.114c.015-.03.049-.046.093-.046.075.015.145.032.202.046l.248.114c.046.03.114.028.204.022a7.52 7.52 0 0 0 1.198-.204c0-.108-.006-.207-.014-.304a3.673 3.673 0 0 0-.1-.53m.161-2.696c0-.12-.004-.24-.012-.36-.004-.12-.018-.303-.035-.542a4.228 4.228 0 0 0-.063-.547 4.593 4.593 0 0 0-.172-.474c-.08-.196-.117-.307-.1-.34 0-.058.11-.104.348-.125a1.13 1.13 0 0 1 .69.17.49.49 0 0 1 .135.138c.014.03.028.056.036.079a.315.315 0 0 1-.01.125 2.415 2.415 0 0 0-.08.464 4.989 4.989 0 0 0-.033.51l-.026.814a30.512 30.512 0 0 0 2.084-.282c.42-.085.714-.161.888-.228.179-.068.278-.11.31-.125.03 0 .25.086.656.26.409.172.671.375.792.6.124.225.18.354.18.384-.016.106-.056.17-.127.192-.062.024-.269.038-.608.044-.343.01-.735.125-1.188.351l-.227.116c-.118.058-.193.086-.215.077-.019-.01-.041-.015-.054-.022a.102.102 0 0 1-.038-.023 2.51 2.51 0 0 1 .104-.215l.342-.581c.013-.031.224-.363.224-.414 0-.023-.069-.058-.11-.09-.17-.044-.84.032-2.018.227l-3.348.45-.839.16-.246.045a6.66 6.66 0 0 1-.478 1.188c-.18.34-.343.5-.494.487-.108 0-.177-.052-.202-.16a.928.928 0 0 1-.047-.247v-.28c0-.046.006-.128.022-.17.016-.049.079-.169.203-.366.122-.195.202-.389.234-.577.041-.186.067-.347.083-.474s.035-.23.055-.304c.025-.075.061-.113.122-.113.03.015.136.12.294.314.174.196.288.282.364.25.169-.091.383-.131.646-.123.266.004.915-.08 1.958-.263m12.091 5.928l.025-.983.02-.755c-.397.09-.71.127-.937.114-.367 0-.631-.046-.806-.137l-.204-.137c-.048-.016-.07-.03-.08-.046-.008-.016-.002-.042.017-.082.01-.037.041-.062.09-.08l.294-.023 1.606-.297c0-.397-.02-.7-.057-.906a2.258 2.258 0 0 0-.15-.505 1.475 1.475 0 0 1-.102-.237.3.3 0 0 1 .022-.148c.02-.069.113-.091.287-.059.55.121.844.218.887.284.053.069.076.129.076.174-.016.05-.058.13-.12.252a1.05 1.05 0 0 0-.088.437l-.05.597c.641-.233 1.126-.34 1.434-.336.312.006.467.103.461.275-.008.177-.214.316-.611.424l-.8.182-.484.117-.02.825-.023.983.457-.067.87-.137a8.62 8.62 0 0 1 1.145-.094c.231.017.437.088.621.218.18.13.289.26.32.39.03.13-.045.2-.228.218-.076.014-.235.007-.482-.023-.244-.031-.872-.04-1.876-.023a31.29 31.29 0 0 0-1.546.082 8.407 8.407 0 0 0-1.568.25c-.508.13-.765.193-.782.193-.055.013-.16 0-.298-.044a.749.749 0 0 1-.34-.23c-.097-.107-.132-.178-.123-.219.015-.035.071-.064.162-.08l.62-.022c.138 0 .926-.114 2.36-.345zm-2.156-5.29c-.407.107-.725.147-.937.115-.245-.016-.42-.067-.523-.159-.111-.093-.16-.162-.154-.22.007-.049.043-.086.102-.101l.624-.113 1.192-.276c.197-.49.334-.891.398-1.204.069-.312.088-.522.058-.628l-.045-.137a.323.323 0 0 1-.023-.217c.016-.087.122-.113.321-.085.045.018.224.106.534.266.317.16.417.326.311.491a.637.637 0 0 1-.15.15c-.085.07-.195.265-.333.582l-.227.53c.427-.092.842-.2 1.246-.334.406-.128.692-.202.861-.218.272-.015.431.033.47.14.038.107.037.198-.012.275-.135.167-.909.428-2.313.778l-.549.139c-.381.855-.667 1.453-.858 1.798-.193.34-.563.935-1.111 1.774a48.306 48.306 0 0 0-.015 1.694c.012.488.015.832.015 1.03-.015.185-.037.414-.059.689-.021.274-.079.483-.162.628-.083.147-.173.197-.265.15-.09-.032-.16-.157-.212-.377a3.857 3.857 0 0 1-.104-.518.72.72 0 0 1 0-.273l.064-.434c.066-.384.096-.727.096-1.03v-.665c-.339.365-.657.685-.963.963-.303.272-.578.463-.82.57l-.303.162c-.074.046-.128.065-.158.056-.031-.007-.046-.03-.046-.07 0-.039.046-.104.134-.193l.21-.207c.583-.58 1.235-1.38 1.97-2.405-.012-.184-.032-.346-.045-.49a1.322 1.322 0 0 0-.075-.344c-.028-.084-.036-.144-.022-.172.03-.06.097-.086.184-.07.168.034.33.116.482.252.059-.124.12-.213.161-.274l.407-.688.56-1.148.084-.181z" fill="#231916"/><path d="M55.742 2.049l-2.78-.01c-1.482 4.174-4.402 7.61-4.402 7.61l1.615 2.225 1.054-1.32v10.51h3.043V8.409h-1.555c2.308-3.756 3.025-6.36 3.025-6.36zm7.871 14.265h5.383v-1.907h-5.383v-2.842h-3.06v2.842h-4.775v1.907h4.775v2.853H55.29v1.904h14.293v-1.904h-5.97v-2.853zm-.024-9.827h5.407V4.602h-5.407V2.045h-3.036v2.557h-4.775v1.885h4.775v2.621h-5.284v1.927h14.315V9.108H63.59v-2.62zm25.535 2.676c-.411-.04-.434-.475-.434-.475V7.409c3.921-1.378 5.461-2.416 5.461-2.416V2.63c-1.885 1.247-4.141 2.201-5.461 2.644V2.023h-3.04l-.008 7.153c0 .942.774 1.885 1.89 1.885h6.981V9.163h-5.39zm-7.236-5.542l-1.571 1.202s.953 1.13 1.094 1.396l-4.203.35s1.708-2.052 2.45-3.347L77.824 2s-1.774 2.904-4.062 4.959l1.476 1.682 7.416-.584s.316.539.34.615l1.683-1.057s-1.618-2.82-2.79-3.994zm-4.054 11.971h3.13v-1.207h-3.13v1.207zm0-3.127h3.13v-1.32h-3.13v1.32zm-3.062 8.607h3.062V17.58h3.115v1.015c0 .594-.488.585-.488.585h-.945l-.007 1.9 2.778-.002c1.746-.27 1.725-1.889 1.725-1.889V9.151h-9.234l-.006 11.921zm14.352-1.901c-.411-.039-.434-.473-.434-.473v-1.36c3.432-1.116 5.461-2.417 5.461-2.417V12.58c-1.522 1.023-3.794 2.078-5.461 2.647V11.56h-3.04l-.008 7.627c0 .941.774 1.884 1.89 1.884h6.981v-1.9h-5.39z" fill="#DE0112"/></g></svg>