<svg xmlns="http://www.w3.org/2000/svg" width="16" height="16" viewBox="0 0 16 16"><path d="M8 15.6C4.5 15.6 1.6 12.8 1.5 9.2 1.6 5.7 4.4 2.9 7.9 2.8L7.9 0.9C7.9 0.6 8.1 0.4 8.3 0.2 8.5 0.1 8.8 0.1 9 0.3L14.2 3.8C14.5 3.9 14.7 4.2 14.7 4.5 14.7 4.9 14.5 5.1 14.2 5.3L13.5 5.8C14.2 6.8 14.6 8 14.6 9.2 14.5 12.8 11.6 15.6 8 15.6ZM8 3.7C5 3.7 2.5 6.2 2.5 9.2 2.5 12.3 5 14.7 8 14.7 11.1 14.7 13.6 12.3 13.6 9.2 13.6 8.2 13.3 7.2 12.8 6.3L9 8.8C8.8 8.9 8.5 8.9 8.3 8.8 8.1 8.7 7.9 8.5 7.9 8.2L7.9 5C7.9 4.8 8.1 4.6 8.4 4.6 8.7 4.6 8.9 4.8 8.9 5L8.9 7.8 12.6 5.3 12.6 5.3C12.6 5.3 12.6 5.3 12.6 5.3L13.7 4.6 8.9 1.3 8.9 3.8 8.4 3.8C8.3 3.8 8.1 3.7 8 3.7L8 3.7ZM8 12C7 12 6.1 11.5 5.6 10.6 5 9.8 5 8.7 5.6 7.8 6.1 6.9 7 6.4 8 6.4 8.2 6.4 8.3 6.4 8.4 6.4 8.7 6.5 8.9 6.7 8.8 7 8.8 7.2 8.6 7.4 8.3 7.4 8.2 7.3 8.1 7.3 8 7.3 7.4 7.3 6.8 7.7 6.4 8.3 6.1 8.9 6.1 9.6 6.4 10.2 6.8 10.7 7.4 11.1 8 11.1 8.5 11.1 9 10.9 9.4 10.5 9.6 10.4 9.9 10.4 10.1 10.5 10.1 10.6 10.2 10.7 10.2 10.9 10.2 11 10.1 11.1 10.1 11.2 9.5 11.7 8.8 12 8 12L8 12ZM8.1 13.6C7.6 13.6 7.2 13.5 6.7 13.3 6.6 13.3 6.6 13.3 6.6 13.2 6.7 13.1 6.7 13.1 6.8 13.1 8.3 13.6 9.9 13.2 11.1 12.1 11.1 12.1 11.1 12.1 11.1 12.1 11.2 12.1 11.2 12.1 11.2 12.1 11.3 12.2 11.3 12.3 11.2 12.3 10.4 13.1 9.3 13.6 8.1 13.6L8.1 13.6ZM8.1 13.1C7.7 13.1 7.4 13 7.1 12.9 7 12.9 7 12.8 7 12.8 7 12.7 7.1 12.7 7.1 12.7 7.4 12.8 7.8 12.8 8.1 12.8 9.1 12.8 10 12.5 10.7 11.8 10.7 11.7 10.8 11.7 10.9 11.8 10.9 11.8 10.9 11.9 10.9 11.9 10.1 12.7 9.1 13.1 8.1 13.1L8.1 13.1ZM8.1 12.6C7.9 12.6 7.6 12.5 7.4 12.5 7.4 12.5 7.4 12.5 7.3 12.4 7.3 12.4 7.3 12.3 7.4 12.3 7.4 12.3 7.4 12.3 7.5 12.3 7.7 12.3 7.9 12.3 8.1 12.3 8.9 12.3 9.7 12 10.3 11.4 10.4 11.4 10.4 11.4 10.5 11.4 10.5 11.5 10.5 11.5 10.5 11.6 9.8 12.2 9 12.6 8.1 12.6L8.1 12.6ZM5.6 5.9C5.5 5.9 5.5 5.9 5.5 5.9 5.4 5.8 5.4 5.8 5.4 5.8 5.4 5.7 5.5 5.7 5.5 5.7 6.4 5 7.5 4.8 8.7 4.9 8.7 4.9 8.8 5 8.8 5.1 8.8 5.1 8.7 5.2 8.6 5.2 7.6 5 6.5 5.3 5.6 5.9 5.6 5.9 5.6 5.9 5.6 5.9ZM5.9 6.3C5.8 6.3 5.8 6.3 5.8 6.2 5.7 6.2 5.7 6.1 5.8 6.1 6.5 5.6 7.2 5.4 8 5.4 8.2 5.4 8.4 5.4 8.6 5.4 8.7 5.4 8.7 5.5 8.7 5.5 8.7 5.6 8.6 5.7 8.6 5.6 7.6 5.5 6.7 5.7 5.9 6.3 5.9 6.3 5.9 6.3 5.9 6.3ZM6.2 6.7C6.1 6.7 6.1 6.7 6.1 6.6 6.1 6.6 6 6.6 6 6.5 6.1 6.5 6.1 6.5 6.1 6.5 6.7 6.1 7.4 5.9 8 5.9 8.2 5.9 8.4 5.9 8.5 5.9 8.6 5.9 8.6 5.9 8.6 6 8.7 6 8.7 6.1 8.6 6.1 8.6 6.2 8.5 6.2 8.5 6.1 8.3 6.1 8.2 6.1 8 6.1 7.4 6.1 6.8 6.3 6.2 6.7 6.2 6.7 6.2 6.7 6.2 6.7Z"/></svg>
